<svg xmlns="http://www.w3.org/2000/svg" viewBox="0 0 239 59"><defs><style>.cls-1{fill:#f3703a;}.cls-2{fill:#3f7d95;}.cls-3{fill:#adbecb;}</style></defs><title>ZoomInfo Log-new</title><g id="Layer_1" data-name="Layer 1"><circle class="cls-1" cx="26.36" cy="31.75" r="4.46"/><path class="cls-1" d="M30,10.33c0-1.32-1.21-1.89-2.34-2a8.37,8.37,0,0,0-2.65,0c-1.13.15-2.29.73-2.34,2,0,.42,1.33,7.47,1.77,10.26.12.76.23,1.52.39,2.28a1.63,1.63,0,0,0,.37.88A1.13,1.13,0,0,0,26,24c.3,0,.59,0,.89,0a.86.86,0,0,0,.63-.21,1.79,1.79,0,0,0,.36-.87c.15-.76.27-1.52.38-2.28C28.69,17.8,30,10.75,30,10.33Z"/><path class="cls-2" d="M71.87,41.67H62.13L72.81,26.89a3.55,3.55,0,0,0,.72-2c0-.76-.26-1-.48-1.17a2.51,2.51,0,0,0-1.36-.45H59.44a1.52,1.52,0,0,0-1.14.47A1.58,1.58,0,0,0,57.83,25a1.62,1.62,0,0,0,1.62,1.62H68.5l-11,15.21a1.91,1.91,0,0,0-.38,1.2,1.85,1.85,0,0,0,.17.81,1.92,1.92,0,0,0,.44.61,2.21,2.21,0,0,0,.61.39,1.32,1.32,0,0,0,.48.12h13a1.6,1.6,0,0,0,1.18-.49,1.53,1.53,0,0,0,.48-1.18A1.49,1.49,0,0,0,73,42.15,1.6,1.6,0,0,0,71.87,41.67Z"/><path class="cls-2" d="M92.7,42.68A7.33,7.33,0,0,0,94.26,40a11.1,11.1,0,0,0,.52-3.44V31.72a11.19,11.19,0,0,0-.52-3.42,7.31,7.31,0,0,0-1.56-2.72A7.57,7.57,0,0,0,90,23.74a11.88,11.88,0,0,0-8,0,7.57,7.57,0,0,0-2.69,1.84,7.32,7.32,0,0,0-1.56,2.72,11.18,11.18,0,0,0-.52,3.42v4.83A11.09,11.09,0,0,0,77.77,40a7.31,7.31,0,0,0,1.56,2.7A7.55,7.55,0,0,0,82,44.52a11.84,11.84,0,0,0,8,0A7.57,7.57,0,0,0,92.7,42.68Zm-2-6.14a5.86,5.86,0,0,1-1.09,3.76,5.11,5.11,0,0,1-7.12,0,5.77,5.77,0,0,1-1.12-3.77V31.76A5.78,5.78,0,0,1,82.47,28a5.11,5.11,0,0,1,7.12,0,5.87,5.87,0,0,1,1.09,3.76Z"/><path class="cls-2" d="M114.56,42.68a7.36,7.36,0,0,0,1.56-2.7,11.18,11.18,0,0,0,.52-3.44V31.72a11.2,11.2,0,0,0-.52-3.42,7.3,7.3,0,0,0-1.56-2.72,7.6,7.6,0,0,0-2.69-1.84,11.88,11.88,0,0,0-8,0,7.57,7.57,0,0,0-2.69,1.84,7.27,7.27,0,0,0-1.56,2.72,11.17,11.17,0,0,0-.52,3.42v4.83A11.08,11.08,0,0,0,99.63,40a7.26,7.26,0,0,0,1.56,2.7,7.55,7.55,0,0,0,2.69,1.84,11.85,11.85,0,0,0,8,0A7.61,7.61,0,0,0,114.56,42.68Zm-2-6.14a5.85,5.85,0,0,1-1.09,3.76,5.11,5.11,0,0,1-7.12,0,5.77,5.77,0,0,1-1.12-3.77V31.76A5.78,5.78,0,0,1,104.33,28a5.11,5.11,0,0,1,7.12,0,5.87,5.87,0,0,1,1.09,3.76Z"/><path class="cls-2" d="M160.14,23a1.93,1.93,0,0,0-1.47.6,2,2,0,0,0-.6,1.47V43.19a1.91,1.91,0,0,0,.59,1.44,2,2,0,0,0,1.48.59,2,2,0,0,0,2-2V25.11a2,2,0,0,0-.6-1.47A1.88,1.88,0,0,0,160.14,23Z"/><path class="cls-2" d="M160.14,19a2.32,2.32,0,0,0,1.7-.69,2.44,2.44,0,0,0,0-3.41,2.33,2.33,0,0,0-1.7-.69,2.38,2.38,0,0,0-1.74.69,2.24,2.24,0,0,0-.69,1.7,2.24,2.24,0,0,0,.69,1.7A2.38,2.38,0,0,0,160.14,19Z"/><path class="cls-2" d="M202.94,13.57h-2.19c-2.63,0-4.59.7-5.84,2.08a8.68,8.68,0,0,0-1.92,6v1.66h-1.71a1.46,1.46,0,0,0-1.48,1.48,1.49,1.49,0,0,0,.43,1.09,1.38,1.38,0,0,0,1,.44H193V43.19a1.92,1.92,0,0,0,.59,1.44,2,2,0,0,0,1.48.59,2,2,0,0,0,2-2V26.32H201a1.37,1.37,0,0,0,1-.44,1.48,1.48,0,0,0,.44-1.09A1.46,1.46,0,0,0,201,23.32h-3.94V21.65a4.92,4.92,0,0,1,1.13-3.58,4.42,4.42,0,0,1,3.31-1.18h1.41a1.6,1.6,0,0,0,1.17-.48,1.54,1.54,0,0,0,.49-1.18,1.7,1.7,0,0,0-1.66-1.66Z"/><path class="cls-2" d="M221.21,42.68a7.33,7.33,0,0,0,1.56-2.7,11.17,11.17,0,0,0,.52-3.44V31.72a11.28,11.28,0,0,0-.52-3.42,7.37,7.37,0,0,0-1.56-2.72,7.57,7.57,0,0,0-2.69-1.84,11.88,11.88,0,0,0-8,0,7.61,7.61,0,0,0-2.69,1.84,7.33,7.33,0,0,0-1.56,2.72,11.18,11.18,0,0,0-.52,3.42v4.83a11.09,11.09,0,0,0,.52,3.44,7.33,7.33,0,0,0,1.56,2.7,7.58,7.58,0,0,0,2.69,1.84,11.85,11.85,0,0,0,8,0A7.57,7.57,0,0,0,221.21,42.68Zm-2-6.14a5.86,5.86,0,0,1-1.1,3.76,5.1,5.1,0,0,1-7.12,0,5.75,5.75,0,0,1-1.13-3.77V31.76A5.76,5.76,0,0,1,211,28a5.11,5.11,0,0,1,7.12,0,5.87,5.87,0,0,1,1.1,3.76Z"/><path class="cls-3" d="M14.66,18.18a1.35,1.35,0,0,0-1.8.18,5.5,5.5,0,0,0-.56.52,5.73,5.73,0,0,0-.47.61,1.36,1.36,0,0,0,0,1.81c.18.18,1.79,1.36,2.4,1.78q2.05,1.42,4.13,2.81c.38.25.76.51,1.15.75a1,1,0,0,0,.53.19.65.65,0,0,0,.39-.25,5.11,5.11,0,0,0,.34-.38.48.48,0,0,0,.15-.35,1.07,1.07,0,0,0-.24-.5c-.27-.36-.56-.72-.85-1.07q-1.57-1.95-3.16-3.87C16.17,19.84,14.85,18.34,14.66,18.18Z"/><path class="cls-3" d="M41,21.39a1.36,1.36,0,0,0,0-1.81,6.16,6.16,0,0,0-.47-.61,5.63,5.63,0,0,0-.56-.53,1.35,1.35,0,0,0-1.8-.19c-.19.16-1.53,1.65-2,2.22Q34.53,22.38,33,24.32c-.29.35-.58.7-.85,1.07a1,1,0,0,0-.24.51.68.68,0,0,0,.21.42l.35.38a.49.49,0,0,0,.34.18,1.06,1.06,0,0,0,.52-.19c.39-.24.77-.49,1.15-.74q2.09-1.38,4.16-2.79C39.18,22.74,40.81,21.56,41,21.39Z"/><path class="cls-3" d="M44.08,34.48c.78,0,1.14-.66,1.25-1.31a4.56,4.56,0,0,0,.05-1.53c-.07-.66-.39-1.34-1.16-1.39-.25,0-2.25.12-3,.2q-2.48.26-5,.55c-.45.05-.91.1-1.36.17a1,1,0,0,0-.53.2.66.66,0,0,0-.14.44c0,.17,0,.34,0,.51a.47.47,0,0,0,.12.37,1,1,0,0,0,.5.22c.44.1.9.18,1.34.27q2.46.46,4.92.89C41.84,34.2,43.83,34.48,44.08,34.48Z"/><path class="cls-3" d="M37.19,46A1.35,1.35,0,0,0,39,46a5.42,5.42,0,0,0,.59-.48,5.28,5.28,0,0,0,.51-.58,1.35,1.35,0,0,0,.13-1.81c-.16-.18-1.7-1.47-2.28-1.93q-2-1.55-4-3.07c-.36-.28-.72-.56-1.09-.82a1,1,0,0,0-.51-.23.67.67,0,0,0-.41.22l-.36.36a.48.48,0,0,0-.17.34,1,1,0,0,0,.21.51c.25.38.51.75.78,1.13q1.44,2,2.92,4.06C35.77,44.28,37,45.87,37.19,46Z"/><path class="cls-3" d="M24.2,49.54c0,.78.69,1.12,1.35,1.22a6,6,0,0,0,.76.07,5.83,5.83,0,0,0,.77-.06c.65-.09,1.32-.42,1.35-1.21,0-.25-.19-2.24-.29-3q-.33-2.48-.7-5c-.07-.45-.13-.9-.22-1.35a1,1,0,0,0-.21-.52.66.66,0,0,0-.45-.13H26a.48.48,0,0,0-.36.12,1.07,1.07,0,0,0-.21.51c-.09.45-.15.9-.22,1.35q-.39,2.47-.74,4.95C24.4,47.3,24.19,49.3,24.2,49.54Z"/><path class="cls-3" d="M12.43,43a1.35,1.35,0,0,0,.12,1.81,5.46,5.46,0,0,0,.5.58,4.92,4.92,0,0,0,.59.49,1.35,1.35,0,0,0,1.81.08c.18-.17,1.42-1.75,1.86-2.34q1.49-2,2.94-4c.27-.37.53-.74.78-1.12a1,1,0,0,0,.21-.52.66.66,0,0,0-.23-.4c-.12-.12-.24-.24-.37-.35a.47.47,0,0,0-.35-.16,1,1,0,0,0-.5.22c-.38.26-.74.54-1.1.81q-2,1.51-4,3C14.14,41.56,12.59,42.84,12.43,43Z"/><path class="cls-3" d="M8.51,30.15c-.78,0-1.1.73-1.17,1.38a5.21,5.21,0,0,0,0,.77,4.79,4.79,0,0,0,.09.76c.11.65.47,1.31,1.25,1.32.25,0,2.24-.27,3-.39q2.47-.41,4.93-.86c.45-.08.9-.16,1.34-.26a1,1,0,0,0,.52-.23.65.65,0,0,0,.11-.45c0-.17,0-.34,0-.51a.49.49,0,0,0-.14-.36,1.06,1.06,0,0,0-.51-.19c-.45-.07-.91-.13-1.36-.18q-2.48-.31-5-.58C10.76,30.29,8.76,30.14,8.51,30.15Z"/><path class="cls-2" d="M185.38,27.36a5.75,5.75,0,0,0-1.1-2.3,5.17,5.17,0,0,0-2-1.46,8.2,8.2,0,0,0-3.23-.55,10.1,10.1,0,0,0-3.56.57,7.89,7.89,0,0,0-2.58,1.57l-.35.32v-.64a1.92,1.92,0,0,0-.59-1.44,2,2,0,0,0-1.48-.59,2,2,0,0,0-2,2v4.32a.18.18,0,0,0,0,0v14a1.91,1.91,0,0,0,.59,1.44,2,2,0,0,0,1.48.59,2,2,0,0,0,2-2V29.33l.2-.27a5.57,5.57,0,0,1,4.6-2.28,4.86,4.86,0,0,1,2.07.39,3.43,3.43,0,0,1,1.38,1.11,4,4,0,0,1,.65,1.52,7.63,7.63,0,0,1,.16,1.55V43.19a2,2,0,0,0,2,2,2,2,0,0,0,1.47-.6,1.88,1.88,0,0,0,.6-1.43V30.62A14,14,0,0,0,185.38,27.36Z"/><path class="cls-2" d="M150.78,25a4.75,4.75,0,0,0-1.94-1.42,8.28,8.28,0,0,0-3.2-.53,9.85,9.85,0,0,0-3.65.61,7.19,7.19,0,0,0-2.54,1.67l-.84.87-.72-1a5,5,0,0,0-2-1.6,7.91,7.91,0,0,0-3.3-.58,9.92,9.92,0,0,0-3.51.57,7.79,7.79,0,0,0-2.54,1.52l-.91.84a3.28,3.28,0,0,0-.92-1.3,4.19,4.19,0,0,0-2.85-1.31c-1,0-2,.4-1.94,1.49,0,.86,1,1.44,1.51,2a3.37,3.37,0,0,1,.67,2.32v14a1.92,1.92,0,0,0,.59,1.44,2,2,0,0,0,1.49.59,2,2,0,0,0,2-2v-14l.22-.28a5.68,5.68,0,0,1,1.91-1.58,5.62,5.62,0,0,1,2.58-.59,4.69,4.69,0,0,1,2.06.4,3.48,3.48,0,0,1,1.35,1.1A4,4,0,0,1,135,29.8a7.52,7.52,0,0,1,.16,1.55V43.19a2,2,0,0,0,2,2,2,2,0,0,0,1.47-.6,1.88,1.88,0,0,0,.6-1.43V29.34a4.79,4.79,0,0,1,1.47-1.57,6.12,6.12,0,0,1,.53-.34,5.47,5.47,0,0,1,2.71-.65,4.7,4.7,0,0,1,2.06.4,3.44,3.44,0,0,1,1.34,1.1,3.74,3.74,0,0,1,.63,1.56,9,9,0,0,1,.13,1.52V43.19a1.91,1.91,0,0,0,.59,1.44,2,2,0,0,0,1.48.59,2,2,0,0,0,2-2V30.58a13.79,13.79,0,0,0-.36-3.26A5.88,5.88,0,0,0,150.78,25Z"/><path class="cls-2" d="M231.7,42.69A2.61,2.61,0,0,1,226.83,44a2.54,2.54,0,0,1-.35-1.3,2.58,2.58,0,0,1,.35-1.31,2.54,2.54,0,0,1,1-1,2.62,2.62,0,0,1,3.92,2.26m-.36,0a2.28,2.28,0,0,0-1.12-2,2.18,2.18,0,0,0-1.12-.3,2.24,2.24,0,0,0-1.13.3,2.2,2.2,0,0,0-.83.83,2.26,2.26,0,0,0-.3,1.13A2.26,2.26,0,0,0,229.1,45a2.18,2.18,0,0,0,1.12-.31,2.25,2.25,0,0,0,1.12-2M228,41.17h1.25a1.63,1.63,0,0,1,.63.09.7.7,0,0,1,.31.29.86.86,0,0,1,.12.46.85.85,0,0,1-.09.4.86.86,0,0,1-.29.27.59.59,0,0,1,.27.23,1,1,0,0,1,.07.45v.34a.69.69,0,0,0,.11.4l0,.08h-.53a2.43,2.43,0,0,1-.07-.44l0-.37a.64.64,0,0,0-.06-.29.29.29,0,0,0-.15-.12,1.23,1.23,0,0,0-.38,0h-.75v1.26H228Zm.47.43v.89h.74a.92.92,0,0,0,.46-.08.41.41,0,0,0,.18-.37.41.41,0,0,0-.13-.34.77.77,0,0,0-.48-.11Z"/></g></svg>