<?xml version="1.0" encoding="UTF-8"?>
<svg width="30px" height="30px" viewBox="0 0 30 30" version="1.1" xmlns="http://www.w3.org/2000/svg" xmlns:xlink="http://www.w3.org/1999/xlink">
    <!-- Generator: sketchtool 55.1 (78136) - https://sketchapp.com -->
    <title>2173A432-827D-49B9-B930-D2978937DEC7</title>
    <desc>Created with sketchtool.</desc>
    <g id="My_Forecast" stroke="none" stroke-width="1" fill="none" fill-rule="evenodd">
        <g id="Artboard" transform="translate(-158.000000, -59.000000)" fill="#FFFFFF" fill-rule="nonzero">
            <g id="Analyst" transform="translate(158.000000, 59.000000)">
                <g id="analytics">
                    <path d="M13.4327537,10.9806433 L12.2709305,10.9806433 C12.1106001,10.9806433 11.9804678,11.1961128 11.9804678,11.4615835 L11.9804678,17.2326855 C11.9804678,17.4981562 12.1106001,17.7136257 12.2709305,17.7136257 L13.4327537,17.7136257 C13.5930841,17.7136257 13.7232164,17.4981562 13.7232164,17.2326855 L13.7232164,11.4615835 C13.7232164,11.1961128 13.5930841,10.9806433 13.4327537,10.9806433 Z" id="Path"></path>
                    <path d="M9.44251983,14.7233333 L8.28069655,14.7233333 C8.12036619,14.7233333 7.99023392,14.8908001 7.99023392,15.0971286 L7.99023392,17.3398304 C7.99023392,17.546159 8.12036619,17.7136257 8.28069655,17.7136257 L9.44251983,17.7136257 C9.60285019,17.7136257 9.73298246,17.546159 9.73298246,17.3398304 L9.73298246,15.0971286 C9.73295523,14.8908001 9.60285019,14.7233333 9.44251983,14.7233333 Z" id="Path"></path>
                    <path d="M17.4229877,7.23795322 L16.2611644,7.23795322 C16.100834,7.23795322 15.9707018,7.47262392 15.9707018,7.76175157 L15.9707018,17.1898274 C15.9707018,17.478955 16.100834,17.7136257 16.2611644,17.7136257 L17.4229877,17.7136257 C17.583318,17.7136257 17.7134503,17.478955 17.7134503,17.1898274 L17.7134503,7.76175157 C17.7134503,7.47262392 17.583318,7.23795322 17.4229877,7.23795322 Z" id="Path"></path>
                    <path d="M29.5759649,27.8121053 L22.1292982,20.3653801 C23.8908772,18.2145614 24.9512865,15.4674269 24.9512865,12.4757895 C24.9512865,5.59672515 19.3547368,0.000175438597 12.4756725,0.000175438597 C5.59660819,0.000175438597 0,5.59672515 0,12.4757895 C0,19.3548538 5.59654971,24.9514035 12.475614,24.9514035 C15.4672515,24.9514035 18.214386,23.8909942 20.3652047,22.1294152 L27.8119298,29.5761404 C28.0552047,29.8194152 28.3745614,29.9416959 28.6939766,29.9416959 C29.0133918,29.9416959 29.3327485,29.8194152 29.5760234,29.5761404 C30.0638012,29.0883626 30.0638012,28.299883 29.5759649,27.8121053 Z M12.475614,22.4563158 C6.97263158,22.4563158 2.49508772,17.9788304 2.49508772,12.4757895 C2.49508772,6.97274854 6.97263158,2.49526316 12.475614,2.49526316 C17.9785965,2.49526316 22.4561404,6.97280702 22.4561404,12.4757895 C22.4561404,17.9787719 17.978655,22.4563158 12.475614,22.4563158 Z" id="Shape" opacity="0.8"></path>
                </g>
            </g>
        </g>
    </g>
</svg>