<?xml version="1.0" encoding="UTF-8"?>
<svg width="32px" height="32px" viewBox="0 0 32 32" version="1.1" xmlns="http://www.w3.org/2000/svg" xmlns:xlink="http://www.w3.org/1999/xlink">
    <!-- Generator: sketchtool 55.1 (78136) - https://sketchapp.com -->
    <title>C085FED0-2623-4C85-A60C-99995E16F81E</title>
    <desc>Created with sketchtool.</desc>
    <g id="My_Forecast" stroke="none" stroke-width="1" fill="none" fill-rule="evenodd" opacity="0.8">
        <g id="Artboard" transform="translate(-328.000000, -58.000000)" fill="#FFFFFF" fill-rule="nonzero">
            <g id="Forecast" transform="translate(328.000000, 58.000000)">
                <g id="Group-6">
                    <g id="weathercock" transform="translate(0.000000, 20.965517)">
                        <path d="M16.8085576,10.4423886 L18.1861859,10.4423886 L18.1861859,6.99800254 L28.7886879,6.99800254 L27.4763456,7.78521869 C27.146762,7.97539946 27.0335366,8.39644657 27.223402,8.72634569 C27.4135828,9.05592935 27.8349453,9.16883932 28.164529,8.97897393 C28.1717831,8.97487386 28.1787216,8.97045835 28.1856602,8.96604291 L31.6303616,6.89928515 C31.9564761,6.70342723 32.0618167,6.27985698 31.8656434,5.95405801 C31.8076115,5.85754838 31.7268714,5.77649289 31.6303616,5.71846093 L28.1856602,3.65170309 C27.8560765,3.4618377 27.4350295,3.57474767 27.2448486,3.90464678 C27.059714,4.22571487 27.1619008,4.63603873 27.4763456,4.83252731 L28.7886879,5.62005891 L18.1861859,5.62005891 L18.1861859,4.14434401 C18.1861859,3.5529857 16.8085576,3.5529857 16.8085576,4.14434401 L16.8085576,5.62005891 L8.96730448,5.62005891 L7.78364168,3.24547937 C7.66631627,3.01051304 7.42598823,2.86291001 7.16358284,2.86447443 L1.65243898,2.86447443 C1.27207738,2.86417157 0.963111467,3.17262409 0.963111467,3.5529857 C0.963111467,3.6599033 0.987910029,3.76555933 1.03584947,3.86112277 L2.26019762,6.30887304 L1.03584947,8.75662323 C0.865853659,9.09693023 1.00399491,9.51072334 1.34430191,9.68071907 C1.43986543,9.72865852 1.54552147,9.75357443 1.65243898,9.75357443 L7.16358284,9.75357443 C7.42472666,9.75357443 7.66347769,9.6059714 7.78017243,9.372582 L8.96730448,6.99768717 L16.8085576,6.99768717 L16.8085576,10.4423886 Z M16.1194281,1.48654331 C16.1194281,0.725504646 16.7363331,0.108599684 17.4973717,0.108599684 C18.2584105,0.108599684 18.8753154,0.725504646 18.8753154,1.48654331 C18.8753154,2.24758198 18.2584105,2.86448694 17.4973717,2.86448694 C16.7363331,2.86448694 16.1194281,2.24758198 16.1194281,1.48654331 Z M3.98223295,4.2421152 L4.67136253,5.62005891 L3.45584525,5.62005891 L2.76703112,4.2421152 L3.98223295,4.2421152 Z M6.73812029,8.3756308 L2.76703112,8.3756308 L3.45584525,6.99768717 L7.42693442,6.99768717 L6.73812029,8.3756308 Z M6.21173251,5.62005891 L5.52260301,4.2421152 L6.73812029,4.2421152 L7.42693442,5.62005891 L6.21173251,5.62005891 Z" id="Shape"></path>
                    </g>
                    <g id="clock-circular-outline" transform="translate(6.620690, 0.000000)">
                        <path d="M11.0344828,0 C4.95007169,0 0,4.95007169 0,11.0344828 C0,17.1188938 4.95007169,22.0689655 11.0344828,22.0689655 C17.1188938,22.0689655 22.0689655,17.1188938 22.0689655,11.0344828 C22.0689655,4.95007169 17.1188938,0 11.0344828,0 Z M11.0344828,19.7210147 C6.24477222,19.7210147 2.34772363,15.8244204 2.34772363,11.0344828 C2.34772363,6.24454508 6.24477222,2.34795077 11.0344828,2.34795077 C15.8241933,2.34795077 19.7212419,6.24454508 19.7212419,11.0344828 C19.7212419,15.8244204 15.8241933,19.7210147 11.0344828,19.7210147 Z" id="Shape"></path>
                        <path d="M16.7854252,10.6594546 L12.038345,10.6594546 L12.038345,4.60130719 C12.038345,4.09149966 11.6489157,3.67816092 11.1685978,3.67816092 C10.6882799,3.67816092 10.2988506,4.09149966 10.2988506,4.60130719 L10.2988506,11.5826009 C10.2988506,12.0924084 10.6882799,12.5057471 11.1685978,12.5057471 L16.7854252,12.5057471 C17.2657431,12.5057471 17.6551724,12.0924084 17.6551724,11.5826009 C17.6551724,11.0727933 17.2657431,10.6594546 16.7854252,10.6594546 Z" id="Path"></path>
                    </g>
                </g>
            </g>
        </g>
    </g>
</svg>