<?xml version="1.0" encoding="UTF-8"?>
<svg width="30px" height="28px" viewBox="0 0 30 28" version="1.1" xmlns="http://www.w3.org/2000/svg" xmlns:xlink="http://www.w3.org/1999/xlink">
    <!-- Generator: sketchtool 55.1 (78136) - https://sketchapp.com -->
    <title>CDF05D12-473D-4147-9EA2-0ADF5B49043B</title>
    <desc>Created with sketchtool.</desc>
    <g id="My_Forecast" stroke="none" stroke-width="1" fill="none" fill-rule="evenodd">
        <g id="Artboard" transform="translate(-242.000000, -60.000000)" fill="#FFFFFF">
            <g id="Pipeline" transform="translate(242.000000, 60.000000)">
                <g id="Group-7">
                    <g id="filter" fill-rule="nonzero" opacity="0.8">
                        <path d="M29.8480645,0.602903226 C29.6983065,0.285241935 29.3785887,0.0826209677 29.0274194,0.0826209677 L0.907258065,0.0826209677 C0.55608871,0.0826209677 0.236491935,0.285241935 0.0866129032,0.602903226 C-0.0631451613,0.920564516 -0.0162096774,1.29604839 0.207217742,1.56701613 L11.0170161,14.6779839 L11.0170161,26.7675 C11.0170161,27.0814113 11.1792339,27.3729435 11.4458468,27.5384274 C11.5919758,27.6290323 11.7578226,27.6747581 11.9242742,27.6747581 C12.0618145,27.6747581 12.1998387,27.6434274 12.3270968,27.5804032 L18.4006452,24.570121 C18.7092339,24.4172177 18.9044758,24.1028226 18.9049597,23.7584274 L18.9168145,14.6783468 L29.7272177,1.56689516 C29.9507661,1.29604839 29.9978226,0.920443548 29.8480645,0.602903226 Z M17.310121,13.7749597 C17.1764516,13.9370565 17.1031452,14.1406452 17.1029032,14.3508871 L17.0912903,23.1939919 L12.8316532,25.3052419 L12.8316532,14.3520968 C12.8316532,14.1414919 12.7584677,13.9374194 12.6244355,13.7749597 L2.83112903,1.89701613 L27.1034274,1.89701613 L17.310121,13.7749597 Z" id="Shape"></path>
                    </g>
                    <text id="$" font-family="SegoeUI-Semibold, Segoe UI" font-size="13" font-weight="500">
                        <tspan x="22" y="24">$</tspan>
                    </text>
                </g>
            </g>
        </g>
    </g>
</svg>