<?xml version="1.0" encoding="UTF-8"?>
<svg width="25px" height="30px" viewBox="0 0 25 30" version="1.1" xmlns="http://www.w3.org/2000/svg" xmlns:xlink="http://www.w3.org/1999/xlink">
    <!-- Generator: sketchtool 55.1 (78136) - https://sketchapp.com -->
    <title>3EE95EF5-6C74-4E60-84AB-5C91451F330B</title>
    <desc>Created with sketchtool.</desc>
    <g id="My_Forecast" stroke="none" stroke-width="1" fill="none" fill-rule="evenodd" opacity="0.8">
        <g id="Artboard" transform="translate(-658.000000, -59.000000)" fill="#FFFFFF">
            <g id="Help" transform="translate(658.000000, 59.000000)">
                <g id="Group-14">
                    <g id="copy" fill-rule="nonzero">
                        <path d="M17.8791992,30 L2.12080081,30 C0.950967085,30 0,29.0390874 0,27.8589291 L0,7.14107088 C0,5.96091261 0.950967085,5 2.12080081,5 L4.12623006,5 C4.36036647,5 4.55039023,5.19183995 4.55039023,5.42821418 C4.55039023,5.6645884 4.36036647,5.85642835 4.12623006,5.85642835 L2.12080081,5.85642835 C1.4192399,5.85642835 0.848320326,6.43280463 0.848320326,7.14107088 L0.848320326,27.8580727 C0.848320326,28.5663389 1.4192399,29.1427152 2.12080081,29.1427152 L17.8791992,29.1427152 C18.5807601,29.1427152 19.1516797,28.5663389 19.1516797,27.8580727 L19.1516797,25.8326196 C19.1516797,25.5962454 19.3417034,25.4044055 19.5758398,25.4044055 C19.8099762,25.4044055 20,25.5962454 20,25.8326196 L20,27.8580727 C20,29.0390874 19.0490329,30 17.8791992,30 Z" id="Path"></path>
                        <g id="Group" transform="translate(3.000000, 0.000000)">
                            <path d="M19.4172,25.298 L3.07032,25.298 C1.8568,25.298 0.87032,24.3256 0.87032,23.1313333 L0.87032,2.16666667 C0.87032,0.9724 1.8568,0 3.07032,0 L15.04184,0 C15.28472,0 15.48184,0.194133333 15.48184,0.433333333 C15.48184,0.672533333 15.2856,0.866666667 15.04272,0.866666667 L3.07032,0.866666667 C2.34256,0.866666667 1.75032,1.44993333 1.75032,2.16666667 L1.75032,23.1313333 C1.75032,23.8480667 2.34256,24.4313333 3.07032,24.4313333 L19.4172,24.4313333 C20.14496,24.4313333 20.7372,23.8480667 20.7372,23.1313333 L20.7372,6.63953333 C20.7372,6.40033333 20.93432,6.2062 21.1772,6.2062 C21.42008,6.2062 21.6172,6.40033333 21.6172,6.63953333 L21.6172,23.1313333 C21.6172,24.3264667 20.63072,25.298 19.4172,25.298 Z" id="Path"></path>
                            <path d="M21.1772,7.07286667 L15.04184,7.07286667 C14.79896,7.07286667 14.60184,6.87873333 14.60184,6.63953333 L14.60184,0.596266667 C14.60184,0.357066667 14.79896,0.162933333 15.04184,0.162933333 C15.28472,0.162933333 15.48184,0.357066667 15.48184,0.596266667 L15.48184,6.2062 L21.1772,6.2062 C21.42008,6.2062 21.6172,6.40033333 21.6172,6.63953333 C21.6172,6.87873333 21.42096,7.07286667 21.1772,7.07286667 Z" id="Path"></path>
                            <path d="M21.1781416,7.00125896 C21.0639862,7.00125896 20.9498309,6.95750653 20.8637754,6.87171746 L14.741537,0.728361974 C14.5729383,0.55849961 14.5764508,0.287406141 14.7503182,0.121833231 C14.9233074,-0.0420238972 15.203427,-0.0385923343 15.3711476,0.130412139 L21.4933859,6.27376762 C21.6619846,6.44362999 21.6584721,6.71472346 21.4846047,6.88029637 C21.3994273,6.96093809 21.2887844,7.00125896 21.1781416,7.00125896 Z" id="Path"></path>
                        </g>
                    </g>
                    <text id="?" font-family="SegoeUI-Semibold, Segoe UI" font-size="13" font-weight="500">
                        <tspan x="11" y="19">?</tspan>
                    </text>
                </g>
            </g>
        </g>
    </g>
</svg>