<?xml version="1.0" encoding="UTF-8"?>
<svg width="30px" height="30px" viewBox="0 0 30 30" version="1.1" xmlns="http://www.w3.org/2000/svg" xmlns:xlink="http://www.w3.org/1999/xlink">
    <!-- Generator: sketchtool 55.1 (78136) - https://sketchapp.com -->
    <title>9475E320-87D0-4E4F-B9EE-D09F7D1C0946</title>
    <desc>Created with sketchtool.</desc>
    <g id="My_Forecast" stroke="none" stroke-width="1" fill="none" fill-rule="evenodd" opacity="0.8">
        <g id="Artboard" transform="translate(-400.000000, -59.000000)" fill-rule="nonzero">
            <g id="Coach" transform="translate(400.000000, 59.000000)">
                <g id="presentation">
                    <path d="M5.98883041,0 C3.51216374,0.000526315789 1.49760234,2.01508772 1.49760234,4.49175439 C1.49760234,6.96842105 3.51216374,8.98251462 5.98883041,8.98251462 C8.46549708,8.98251462 10.4800585,6.96795322 10.4800585,4.49128655 C10.4800585,2.0145614 8.46549708,0 5.98883041,0 Z M5.98883041,7.48590643 C4.33508772,7.48590643 2.99467836,6.14549708 2.99467836,4.49175439 C2.99467836,2.8380117 4.33508772,1.49760234 5.98883041,1.49760234 C7.6425731,1.49760234 8.98298246,2.8380117 8.98298246,4.49175439 C8.98298246,6.14549708 7.64263158,7.48590643 5.98883041,7.48590643 Z" id="Shape" fill="#F0F0F0"></path>
                    <path d="M28.4449708,7.48538012 L13.4742105,7.48538012 C12.6473099,7.48538012 11.9771345,8.15555556 11.9771345,8.98245614 L11.9771345,10.125731 L13.4742105,10.874269 L13.4742105,8.98245614 L28.4449708,8.98245614 L28.4449708,20.958538 L13.4742105,20.958538 L13.4742105,19.1790058 L11.9771345,18.8052632 L11.9771345,20.958538 C11.9771345,21.7854386 12.6473099,22.455614 13.4742105,22.455614 L19.6381871,22.455614 L15.8266082,28.8077193 C15.6130409,29.1615205 15.7287719,29.6221053 16.0840936,29.8342105 C16.4349123,30.0492982 16.8970175,29.9335088 17.1105848,29.5767251 L20.2110526,24.4088304 L20.2110526,29.1919883 C20.2110526,29.6056725 20.5459064,29.9405263 20.9595906,29.9405263 C21.3732749,29.9405263 21.7081287,29.6056725 21.7081287,29.1919883 L21.7081287,24.4088304 L24.8090643,29.5762573 C24.9492982,29.8102924 25.1977778,29.9400585 25.4508187,29.9400585 C25.5825731,29.9400585 25.7153216,29.9066082 25.8355556,29.8332749 C26.1908772,29.6211696 26.3061404,29.1605848 26.0930409,28.8067836 L22.281462,22.4546784 L28.4449123,22.4546784 C29.2718129,22.4546784 29.9419883,21.7845029 29.9419883,20.9576023 L29.9419883,8.98245614 C29.9419883,8.15555556 29.2718713,7.48538012 28.4449708,7.48538012 Z" id="Path" fill="#F0F0F0"></path>
                    <path d="M26.1699415,11.7705263 C26.0571345,11.372807 25.6434503,11.1387719 25.2447368,11.2575439 L16.0072515,13.8969006 C15.8994737,13.7926316 15.7787135,13.7012865 15.6409942,13.6319298 L9.65269006,10.6377778 C9.44461988,10.5339766 9.21555556,10.4795906 8.98298246,10.4795906 L2.99467836,10.4795906 C2.27111111,10.4795906 1.65128655,10.997076 1.52157895,11.7087135 L0.024502924,19.9421053 C-0.0548538012,20.3787719 0.0634502924,20.8283626 0.347894737,21.1691813 C0.632339181,21.51 1.05350877,21.7071345 1.49766082,21.7071345 L2.45426901,21.7071345 L2.9997076,28.5622222 C3.06157895,29.3407018 3.71081871,29.9405263 4.49181287,29.9405263 L7.48596491,29.9405263 C8.24894737,29.9405263 8.8897076,29.3671345 8.97403509,28.6091228 L10.2819883,16.8385965 L14.608538,17.92 C14.7283041,17.9499415 14.8500585,17.964386 14.971345,17.964386 C15.3016959,17.964386 15.6265497,17.8550877 15.8925731,17.6474854 C16.255848,17.3640351 16.4684211,16.9283626 16.4684211,16.4673099 L16.4684211,15.3210526 L25.6569591,12.6956725 C26.0546784,12.582924 26.2842105,12.1677193 26.1699415,11.7705263 Z M14.9712865,16.4678363 L8.98298246,14.9707602 L7.48590643,28.4439766 L4.49175439,28.4439766 L3.83701754,20.2100585 L1.49760234,20.2100585 L2.99467836,11.9766082 L5.2402924,11.9766082 L5.2402924,16.5307602 C5.2402924,16.9444444 5.5751462,17.2792982 5.98883041,17.2792982 C6.40251462,17.2792982 6.73736842,16.9444444 6.73736842,16.5307602 L6.73736842,11.9766082 L8.98298246,11.9766082 L14.9712865,14.9707602 L14.9712865,16.4678363 Z" id="Shape" fill="#FFFFFF"></path>
                </g>
            </g>
        </g>
    </g>
</svg>