<?xml version="1.0" encoding="UTF-8"?>
<svg width="30px" height="30px" viewBox="0 0 30 30" version="1.1" xmlns="http://www.w3.org/2000/svg" xmlns:xlink="http://www.w3.org/1999/xlink">
    <!-- Generator: sketchtool 55.1 (78136) - https://sketchapp.com -->
    <title>0F1806EC-BBD2-495E-8578-2F5632CE7374</title>
    <desc>Created with sketchtool.</desc>
    <g id="My_Forecast" stroke="none" stroke-width="1" fill="none" fill-rule="evenodd" opacity="0.8">
        <g id="Artboard" transform="translate(-487.000000, -59.000000)" fill="#FFFFFF" fill-rule="nonzero">
            <g id="Reports" transform="translate(487.000000, 59.000000)">
                <path d="M4.453125,14.0625 C5.16265869,14.0625 5.80718994,13.7802887 6.28166197,13.3227539 L8.86848451,14.6161652 C8.85520934,14.7228241 8.84765625,14.8310852 8.84765625,14.9414062 C8.84765625,16.3952637 10.0305176,17.578125 11.484375,17.578125 C12.9382324,17.578125 14.1210938,16.3952637 14.1210938,14.9414062 C14.1210938,14.5349121 14.0283966,14.1494751 13.8633728,13.8052368 L17.3794556,10.289154 C17.7236938,10.4541779 18.1091309,10.546875 18.515625,10.546875 C19.9694824,10.546875 21.1523438,9.36401367 21.1523438,7.91015625 C21.1523438,7.63549805 21.1100006,7.37068178 21.031723,7.12165834 L24.08638,4.83078 C24.504776,5.11024477 25.0069427,5.2734375 25.546875,5.2734375 C27.0007324,5.2734375 28.1835938,4.09057617 28.1835938,2.63671875 C28.1835938,1.18286133 27.0007324,0 25.546875,0 C24.0930176,0 22.9101562,1.18286133 22.9101562,2.63671875 C22.9101562,2.91137695 22.9524994,3.17619322 23.030777,3.42521666 L19.97612,5.716095 C19.557724,5.43663023 19.0555573,5.2734375 18.515625,5.2734375 C17.0617676,5.2734375 15.8789062,6.45629883 15.8789062,7.91015625 C15.8789062,8.31665039 15.9716034,8.7020874 16.1366272,9.04632568 L12.6205444,12.5624085 C12.2763062,12.3973846 11.8908691,12.3046875 11.484375,12.3046875 C10.7748413,12.3046875 10.1303101,12.5868988 9.65583803,13.0444336 L7.06901549,11.7510223 C7.08229066,11.6443634 7.08984375,11.5361023 7.08984375,11.4257812 C7.08984375,9.97192383 5.90698242,8.7890625 4.453125,8.7890625 C2.99926758,8.7890625 1.81640625,9.97192383 1.81640625,11.4257812 C1.81640625,12.8796387 2.99926758,14.0625 4.453125,14.0625 Z M25.546875,1.7578125 C26.0314178,1.7578125 26.4257812,2.15217592 26.4257812,2.63671875 C26.4257812,3.12126158 26.0314178,3.515625 25.546875,3.515625 C25.0623322,3.515625 24.6679688,3.12126158 24.6679688,2.63671875 C24.6679688,2.15217592 25.0623322,1.7578125 25.546875,1.7578125 Z M18.515625,7.03125 C19.0001678,7.03125 19.3945312,7.42561342 19.3945312,7.91015625 C19.3945312,8.39469908 19.0001678,8.7890625 18.515625,8.7890625 C18.0310822,8.7890625 17.6367188,8.39469908 17.6367188,7.91015625 C17.6367188,7.42561342 18.0310822,7.03125 18.515625,7.03125 Z M11.484375,14.0625 C11.9689178,14.0625 12.3632812,14.4568634 12.3632812,14.9414062 C12.3632812,15.4259491 11.9689178,15.8203125 11.484375,15.8203125 C10.9998322,15.8203125 10.6054688,15.4259491 10.6054688,14.9414062 C10.6054688,14.4568634 10.9998322,14.0625 11.484375,14.0625 Z M4.453125,10.546875 C4.93766783,10.546875 5.33203125,10.9412384 5.33203125,11.4257812 C5.33203125,11.9103241 4.93766783,12.3046875 4.453125,12.3046875 C3.96858217,12.3046875 3.57421875,11.9103241 3.57421875,11.4257812 C3.57421875,10.9412384 3.96858217,10.546875 4.453125,10.546875 Z" id="Shape"></path>
                <path d="M29.1210938,28.2421875 L28.1835938,28.2421875 L28.1835938,9.66796875 C28.1835938,9.18251039 27.7901459,8.7890625 27.3046875,8.7890625 L23.7890625,8.7890625 C23.3036041,8.7890625 22.9101562,9.18251039 22.9101562,9.66796875 L22.9101562,28.2421875 L21.1523438,28.2421875 L21.1523438,14.9414062 C21.1523438,14.4559479 20.7588959,14.0625 20.2734375,14.0625 L16.7578125,14.0625 C16.2723541,14.0625 15.8789062,14.4559479 15.8789062,14.9414062 L15.8789062,28.2421875 L14.1210938,28.2421875 L14.1210938,21.9726562 C14.1210938,21.4871979 13.7276459,21.09375 13.2421875,21.09375 L9.7265625,21.09375 C9.24110414,21.09375 8.84765625,21.4871979 8.84765625,21.9726562 L8.84765625,28.2421875 L7.08984375,28.2421875 L7.08984375,18.4570312 C7.08984375,17.9715729 6.69639586,17.578125 6.2109375,17.578125 L2.6953125,17.578125 C2.20985414,17.578125 1.81640625,17.9715729 1.81640625,18.4570312 L1.81640625,28.2421875 L0.87890625,28.2421875 C0.393447891,28.2421875 0,28.6356354 0,29.1210938 C0,29.6065521 0.393447891,30 0.87890625,30 L29.1210938,30 C29.6065521,30 30,29.6065521 30,29.1210938 C30,28.6356354 29.6065521,28.2421875 29.1210938,28.2421875 Z M24.6679688,10.546875 L26.4257812,10.546875 L26.4257812,28.2421875 L24.6679688,28.2421875 L24.6679688,10.546875 Z M17.6367188,15.8203125 L19.3945312,15.8203125 L19.3945312,28.2421875 L17.6367188,28.2421875 L17.6367188,15.8203125 Z M10.6054688,22.8515625 L12.3632812,22.8515625 L12.3632812,28.2421875 L10.6054688,28.2421875 L10.6054688,22.8515625 Z M3.57421875,19.3359375 L5.33203125,19.3359375 L5.33203125,28.2421875 L3.57421875,28.2421875 L3.57421875,19.3359375 Z" id="Shape"></path>
            </g>
        </g>
    </g>
</svg>