<?xml version="1.0" encoding="UTF-8"?>
<svg width="30px" height="30px" viewBox="0 0 30 30" version="1.1" xmlns="http://www.w3.org/2000/svg" xmlns:xlink="http://www.w3.org/1999/xlink">
    <!-- Generator: sketchtool 55.1 (78136) - https://sketchapp.com -->
    <title>5EC46327-80E4-4DE2-9CBD-DE4A1D48AC9A</title>
    <desc>Created with sketchtool.</desc>
    <g id="My_Forecast" stroke="none" stroke-width="1" fill="none" fill-rule="evenodd" opacity="0.8">
        <g id="Artboard" transform="translate(-579.000000, -59.000000)" fill="#FFFFFF" fill-rule="nonzero">
            <g id="Settings" transform="translate(579.000000, 59.000000)">
                <g id="settings">
                    <path d="M14.7272727,7.09090909 C10.5163636,7.09090909 7.09090909,10.5163636 7.09090909,14.7272727 C7.09090909,18.9381818 10.5163636,22.3636364 14.7272727,22.3636364 C18.9381818,22.3636364 22.3636364,18.9381818 22.3636364,14.7272727 C22.3636364,10.5163636 18.9381818,7.09090909 14.7272727,7.09090909 Z M14.7272727,21.2727273 C11.118,21.2727273 8.18181818,18.3365455 8.18181818,14.7272727 C8.18181818,11.118 11.118,8.18181818 14.7272727,8.18181818 C18.3365455,8.18181818 21.2727273,11.118 21.2727273,14.7272727 C21.2727273,18.3365455 18.3365455,21.2727273 14.7272727,21.2727273 Z" id="Shape"></path>
                    <path d="M27.9381818,11.4545455 L26.8374545,11.4545455 C26.5565455,10.4116364 26.1436364,9.41345455 25.6047273,8.478 L26.3825455,7.70018182 C26.6689091,7.41381818 26.8265455,7.03254545 26.8265455,6.62781818 C26.8265455,6.22254545 26.6689091,5.84181818 26.3825455,5.55490909 L23.8990909,3.07145455 C23.3263636,2.49927273 22.3276364,2.49818182 21.7538182,3.07145455 L20.976,3.84927273 C20.04,3.31090909 19.0423636,2.898 18,2.61709091 L18,1.51636364 C18,0.680181818 17.3198182,0 16.4836364,0 L12.9709091,0 C12.1347273,0 11.4545455,0.680181818 11.4545455,1.51636364 L11.4545455,2.61709091 C10.4121818,2.898 9.41454545,3.31090909 8.478,3.84981818 L7.70018182,3.072 C7.12690909,2.49818182 6.12763636,2.49927273 5.55490909,3.072 L3.07145455,5.55545455 C2.78509091,5.84181818 2.62745455,6.22309091 2.62745455,6.62836364 C2.62745455,7.03309091 2.78509091,7.41381818 3.07145455,7.70072727 L3.84927273,8.47854545 C3.31090909,9.41345455 2.89745455,10.4116364 2.61709091,11.4545455 L1.51636364,11.4545455 C0.680181818,11.4545455 0,12.1347273 0,12.9709091 L0,16.4830909 C0,17.3198182 0.680181818,18 1.51636364,18 L2.61709091,18 C2.898,19.0423636 3.31090909,20.04 3.84981818,20.9765455 L3.072,21.7543636 C2.78563636,22.0407273 2.628,22.422 2.628,22.8267273 C2.628,23.232 2.78563636,23.6127273 3.072,23.8996364 L5.55545455,26.3830909 C6.12818182,26.9563636 7.12745455,26.9569091 7.70072727,26.3830909 L8.47854545,25.6052727 C9.41509091,26.1436364 10.4127273,26.5570909 11.4550909,26.838 L11.4550909,27.9387273 C11.4550909,28.7749091 12.1352727,29.4550909 12.9714545,29.4550909 L16.4836364,29.4550909 C17.3198182,29.4550909 18,28.7749091 18,27.9387273 L18,26.838 C19.0423636,26.5570909 20.04,26.1441818 20.9765455,25.6052727 L21.7543636,26.3830909 C22.3281818,26.9569091 23.3263636,26.9558182 23.8996364,26.3830909 L26.3830909,23.8996364 C26.6694545,23.6132727 26.8270909,23.232 26.8270909,22.8267273 C26.8270909,22.422 26.6694545,22.0412727 26.3830909,21.7543636 L25.6052727,20.9765455 C26.1436364,20.04 26.5570909,19.0423636 26.838,18 L27.9387273,18 C28.7749091,18 29.4550909,17.3198182 29.4550909,16.4836364 L29.4550909,12.9709091 C29.4545455,12.1347273 28.7743636,11.4545455 27.9381818,11.4545455 Z M28.3636364,16.4836364 C28.3636364,16.7181818 28.1727273,16.9090909 27.9381818,16.9090909 L25.9789091,16.9090909 L25.8807273,17.3307273 C25.5965455,18.5509091 25.1176364,19.7089091 24.4554545,20.7730909 L24.2263636,21.1407273 L25.6112727,22.5256364 C25.7776364,22.692 25.7776364,22.962 25.6112727,23.1278182 L23.1278182,25.6112727 C22.962,25.7770909 22.692,25.7781818 22.5256364,25.6112727 L21.1407273,24.2263636 L20.7730909,24.4554545 C19.7094545,25.1176364 18.5514545,25.5970909 17.3307273,25.8807273 L16.9090909,25.9789091 L16.9090909,27.9381818 C16.9090909,28.1727273 16.7181818,28.3636364 16.4836364,28.3636364 L12.9709091,28.3636364 C12.7363636,28.3636364 12.5454545,28.1727273 12.5454545,27.9381818 L12.5454545,25.9789091 L12.1238182,25.8807273 C10.9036364,25.5965455 9.74563636,25.1176364 8.68145455,24.4554545 L8.31381818,24.2263636 L6.92890909,25.6112727 C6.762,25.7781818 6.492,25.7770909 6.32672727,25.6112727 L3.84327273,23.1278182 C3.67690909,22.9614545 3.67690909,22.6914545 3.84327273,22.5256364 L5.22818182,21.1407273 L4.99909091,20.7730909 C4.33690909,19.7094545 3.85745455,18.5514545 3.57381818,17.3307273 L3.47563636,16.9090909 L1.51636364,16.9090909 C1.28181818,16.9090909 1.09090909,16.7181818 1.09090909,16.4836364 L1.09090909,12.9709091 C1.09090909,12.7363636 1.28181818,12.5454545 1.51636364,12.5454545 L3.47563636,12.5454545 L3.57381818,12.1238182 C3.858,10.9030909 4.33690909,9.74509091 4.99909091,8.68145455 L5.22818182,8.31381818 L3.84327273,6.92890909 C3.67690909,6.76254545 3.67690909,6.49254545 3.84327273,6.32672727 L6.32672727,3.84327273 C6.49254545,3.67745455 6.76254545,3.67636364 6.92890909,3.84327273 L8.31381818,5.22818182 L8.68145455,4.99909091 C9.74509091,4.33690909 10.9030909,3.85745455 12.1238182,3.57381818 L12.5454545,3.47563636 L12.5454545,1.51636364 C12.5454545,1.28181818 12.7363636,1.09090909 12.9709091,1.09090909 L16.4830909,1.09090909 C16.7181818,1.09090909 16.9090909,1.28181818 16.9090909,1.51636364 L16.9090909,3.47563636 L17.3307273,3.57381818 C18.5509091,3.858 19.7089091,4.33690909 20.7730909,4.99909091 L21.1407273,5.22818182 L22.5256364,3.84327273 C22.6925455,3.67636364 22.9625455,3.67745455 23.1278182,3.84327273 L25.6112727,6.32672727 C25.7776364,6.49309091 25.7776364,6.76309091 25.6112727,6.92890909 L24.2263636,8.31381818 L24.4554545,8.68145455 C25.1176364,9.74454545 25.5970909,10.9025455 25.8807273,12.1238182 L25.9789091,12.5454545 L27.9381818,12.5454545 C28.1727273,12.5454545 28.3636364,12.7363636 28.3636364,12.9709091 L28.3636364,16.4836364 Z" id="Shape"></path>
                    <path d="M14.7272727,9.27272727 C11.7196364,9.27272727 9.27272727,11.7196364 9.27272727,14.7272727 C9.27272727,17.7349091 11.7196364,20.1818182 14.7272727,20.1818182 C17.7349091,20.1818182 20.1818182,17.7349091 20.1818182,14.7272727 C20.1818182,11.7196364 17.7349091,9.27272727 14.7272727,9.27272727 Z M14.7272727,19.0909091 C12.3212727,19.0909091 10.3636364,17.1332727 10.3636364,14.7272727 C10.3636364,12.3212727 12.3212727,10.3636364 14.7272727,10.3636364 C17.1332727,10.3636364 19.0909091,12.3212727 19.0909091,14.7272727 C19.0909091,17.1332727 17.1332727,19.0909091 14.7272727,19.0909091 Z" id="Shape"></path>
                </g>
            </g>
        </g>
    </g>
</svg>